<svg width="1366" height="768" viewBox="0 0 1366 768" fill="none" xmlns="http://www.w3.org/2000/svg">
<path fill-rule="evenodd" clip-rule="evenodd" d="M1366 0H0V768H1366V0ZM334.6 295.8C325.133 291.267 314.333 289 302.2 289C288.2 289 275.933 292.067 265.4 298.2C255 304.2 246.933 312.667 241.2 323.6C235.6 334.533 232.8 347 232.8 361C232.8 375 235.6 387.467 241.2 398.4C246.933 409.333 255 417.867 265.4 424C275.933 430 288.2 433 302.2 433C320.467 433 335.533 428.133 347.4 418.4C359.4 408.533 367 395.333 370.2 378.8H328.8C326.533 384.4 323 388.8 318.2 392C313.4 395.2 307.867 396.8 301.6 396.8C292.933 396.8 285.933 393.533 280.6 387C275.267 380.467 272.6 371.8 272.6 361C272.6 350.2 275.267 341.6 280.6 335.2C285.933 328.667 292.933 325.4 301.6 325.4C307.867 325.4 313.4 327 318.2 330.2C323 333.267 326.533 337.6 328.8 343.2H370.2C368.067 332.4 364 322.933 358 314.8C352 306.533 344.2 300.2 334.6 295.8ZM443.777 324.8C437.11 328.8 431.577 334.133 427.177 340.8V319.8H387.777V432H427.177V383.6C427.177 375.2 429.377 369.333 433.777 366C438.177 362.533 444.777 360.8 453.577 360.8H464.977V318.8C457.51 318.8 450.443 320.8 443.777 324.8ZM584.811 383C585.478 379.667 585.811 376.6 585.811 373.8C585.811 362.733 583.411 353 578.611 344.6C573.944 336.2 567.344 329.733 558.811 325.2C550.278 320.667 540.411 318.4 529.211 318.4C518.144 318.4 508.278 320.733 499.611 325.4C490.944 329.933 484.211 336.533 479.411 345.2C474.611 353.867 472.211 364.067 472.211 375.8C472.211 387.533 474.611 397.8 479.411 406.6C484.211 415.267 490.878 421.933 499.411 426.6C508.078 431.133 518.011 433.4 529.211 433.4C538.411 433.4 546.878 431.6 554.611 428C562.344 424.4 568.744 419.467 573.811 413.2C578.878 406.8 582.144 399.667 583.611 391.8H542.011C541.078 394.867 539.344 397.333 536.811 399.2C534.278 401.067 531.078 402 527.211 402C516.811 402 511.278 395.667 510.611 383H584.811ZM541.211 353.6C544.411 356.533 545.944 360.867 545.811 366.6H510.811C511.344 360.867 513.211 356.533 516.411 353.6C519.744 350.667 524.011 349.2 529.211 349.2C534.011 349.2 538.011 350.667 541.211 353.6ZM663.644 323.6C657.91 320.133 651.11 318.4 643.244 318.4C634.31 318.4 626.244 320.733 619.044 325.4C611.844 329.933 606.177 336.533 602.044 345.2C597.91 353.867 595.844 364.067 595.844 375.8C595.844 387.533 597.91 397.8 602.044 406.6C606.177 415.267 611.844 421.933 619.044 426.6C626.244 431.133 634.31 433.4 643.244 433.4C651.11 433.4 657.91 431.733 663.644 428.4C669.51 424.933 673.844 420.2 676.644 414.2V432H715.844V319.8H676.644V337.6C673.844 331.6 669.51 326.933 663.644 323.6ZM641.244 359C645.11 354.867 650.11 352.8 656.244 352.8C662.11 352.8 666.977 354.867 670.844 359C674.71 363.133 676.644 368.733 676.644 375.8C676.644 383 674.71 388.667 670.844 392.8C666.977 396.933 662.11 399 656.244 399C650.11 399 645.11 397 641.244 393C637.51 388.867 635.644 383.133 635.644 375.8C635.644 368.6 637.51 363 641.244 359ZM804.186 432V398.4H793.586C789.986 398.4 787.386 397.667 785.786 396.2C784.319 394.733 783.586 392.267 783.586 388.8V352.6H803.786V319.8H783.586V292.6H744.186V319.8H729.786V352.6H744.186V388C744.186 403.733 748.053 415 755.786 421.8C763.519 428.6 774.253 432 787.986 432H804.186ZM825.352 274.4C821.085 278.133 818.952 282.933 818.952 288.8C818.952 294.4 821.085 299.067 825.352 302.8C829.618 306.533 835.218 308.4 842.152 308.4C848.952 308.4 854.418 306.533 858.552 302.8C862.818 299.067 864.952 294.4 864.952 288.8C864.952 282.933 862.885 278.133 858.752 274.4C854.618 270.533 849.085 268.6 842.152 268.6C835.218 268.6 829.618 270.533 825.352 274.4ZM861.552 432V319.8H822.152V432H861.552ZM958.884 319.8L937.684 394.2L916.484 319.8H874.484L913.284 432H962.084L1000.68 319.8H958.884ZM1120.55 383C1121.22 379.667 1121.55 376.6 1121.55 373.8C1121.55 362.733 1119.15 353 1114.35 344.6C1109.69 336.2 1103.09 329.733 1094.55 325.2C1086.02 320.667 1076.15 318.4 1064.95 318.4C1053.89 318.4 1044.02 320.733 1035.35 325.4C1026.69 329.933 1019.95 336.533 1015.15 345.2C1010.35 353.867 1007.95 364.067 1007.95 375.8C1007.95 387.533 1010.35 397.8 1015.15 406.6C1019.95 415.267 1026.62 421.933 1035.15 426.6C1043.82 431.133 1053.75 433.4 1064.95 433.4C1074.15 433.4 1082.62 431.6 1090.35 428C1098.09 424.4 1104.49 419.467 1109.55 413.2C1114.62 406.8 1117.89 399.667 1119.35 391.8H1077.75C1076.82 394.867 1075.09 397.333 1072.55 399.2C1070.02 401.067 1066.82 402 1062.95 402C1052.55 402 1047.02 395.667 1046.35 383H1120.55ZM1076.95 353.6C1080.15 356.533 1081.69 360.867 1081.55 366.6H1046.55C1047.09 360.867 1048.95 356.533 1052.15 353.6C1055.49 350.667 1059.75 349.2 1064.95 349.2C1069.75 349.2 1073.75 350.667 1076.95 353.6Z" fill="white"/>
</svg>
